<svg xmlns="http://www.w3.org/2000/svg" xmlns:xlink="http://www.w3.org/1999/xlink" width="500" zoomAndPan="magnify" viewBox="0 0 375 374.999991" height="500" preserveAspectRatio="xMidYMid meet" version="1.0"><defs><g/></defs><rect x="-37.5" width="450" fill="#ffffff" y="-37.499999" height="449.999989" fill-opacity="1"/><rect x="-37.5" width="450" fill="#ffffff" y="-37.499999" height="449.999989" fill-opacity="1"/><rect x="-37.5" width="450" fill="#ffffff" y="-37.499999" height="449.999989" fill-opacity="1"/><rect x="-37.5" width="450" fill="#ffffff" y="-37.499999" height="449.999989" fill-opacity="1"/><g fill="#f28627" fill-opacity="1"><g transform="translate(48.09202, 238.984159)"><g><path d="M 188.28125 0 L 139.546875 0 L 86.53125 -85.28125 L 68.390625 -72.265625 L 68.390625 0 L 25.46875 0 L 25.46875 -202.40625 L 68.390625 -202.40625 L 68.390625 -109.78125 C 71.253906 -113.75 74.066406 -117.71875 76.828125 -121.6875 C 79.597656 -125.65625 82.414062 -129.625 85.28125 -133.59375 L 140.109375 -202.40625 L 187.734375 -202.40625 L 117.125 -112.828125 Z M 188.28125 0 "/></g></g></g><g fill="#f28627" fill-opacity="1"><g transform="translate(167.994193, 340.038298)"><g><path d="M 142.046875 0 L 25.46875 0 L 25.46875 -202.40625 L 142.046875 -202.40625 L 142.046875 -167.234375 L 68.390625 -167.234375 L 68.390625 -122.796875 L 136.921875 -122.796875 L 136.921875 -87.640625 L 68.390625 -87.640625 L 68.390625 -35.4375 L 142.046875 -35.4375 Z M 142.046875 0 "/></g></g></g></svg>